<svg xmlns="http://www.w3.org/2000/svg" xmlns:xlink="http://www.w3.org/1999/xlink" width="210" zoomAndPan="magnify" viewBox="0 0 157.5 60" height="80" preserveAspectRatio="xMidYMid meet" version="1.0"><defs><g><g id="id1"/><g id="id2"/></g><clipPath id="id3"><path d="M 47.175781 4.015625 L 91.425781 4.015625 L 91.425781 50.515625 L 47.175781 50.515625 Z M 47.175781 4.015625 " clip-rule="nonzero"/></clipPath><clipPath id="id4"><path d="M 72.59375 25.679688 L 52.84375 25.679688 C 52.078125 25.679688 51.523438 24.949219 51.730469 24.210938 L 57.152344 4.867188 C 57.292969 4.367188 57.746094 4.019531 58.265625 4.019531 L 78.015625 4.019531 C 78.78125 4.019531 79.335938 4.753906 79.128906 5.492188 L 73.707031 24.835938 C 73.566406 25.335938 73.113281 25.679688 72.59375 25.679688 Z M 59.765625 40.285156 L 62.558594 30.324219 C 62.765625 29.585938 62.210938 28.851562 61.445312 28.851562 L 51.292969 28.851562 C 50.773438 28.851562 50.316406 29.199219 50.179688 29.699219 L 47.386719 39.65625 C 47.179688 40.394531 47.734375 41.128906 48.5 41.128906 L 58.652344 41.128906 C 59.171875 41.128906 59.625 40.78125 59.765625 40.285156 Z M 64.902344 29.699219 L 59.480469 49.042969 C 59.273438 49.78125 59.828125 50.511719 60.59375 50.511719 L 80.347656 50.511719 C 80.863281 50.511719 81.320312 50.167969 81.460938 49.667969 L 86.882812 30.324219 C 87.089844 29.585938 86.535156 28.851562 85.769531 28.851562 L 66.015625 28.851562 C 65.5 28.851562 65.042969 29.199219 64.902344 29.699219 Z M 78.847656 14.25 L 76.054688 24.210938 C 75.847656 24.949219 76.402344 25.679688 77.167969 25.679688 L 87.320312 25.679688 C 87.839844 25.679688 88.292969 25.335938 88.433594 24.835938 L 91.226562 14.875 C 91.433594 14.136719 90.878906 13.40625 90.113281 13.40625 L 79.960938 13.40625 C 79.441406 13.40625 78.984375 13.75 78.847656 14.25 Z M 78.847656 14.25 " clip-rule="nonzero"/></clipPath><linearGradient x1="114.296454" gradientTransform="matrix(0.0928841, 0, 0, 0.0929836, 47.342595, 4.020997)" y1="-47.63394" x2="358.610867" gradientUnits="userSpaceOnUse" y2="547.60726" xlink:type="simple" xlink:actuate="onLoad" id="id5" xlink:show="other"><stop stop-opacity="1" stop-color="rgb(42.399597%, 38.798523%, 100%)" offset="0"/><stop stop-opacity="1" stop-color="rgb(42.399597%, 38.798523%, 100%)" offset="0.0625"/><stop stop-opacity="1" stop-color="rgb(42.507935%, 38.787842%, 99.809265%)" offset="0.09375"/><stop stop-opacity="1" stop-color="rgb(42.912292%, 38.751221%, 99.107361%)" offset="0.0976563"/><stop stop-opacity="1" stop-color="rgb(43.208313%, 38.725281%, 98.594666%)" offset="0.101562"/><stop stop-opacity="1" stop-color="rgb(43.502808%, 38.697815%, 98.08197%)" offset="0.105469"/><stop stop-opacity="1" stop-color="rgb(43.797302%, 38.671875%, 97.569275%)" offset="0.109375"/><stop stop-opacity="1" stop-color="rgb(44.091797%, 38.644409%, 97.05658%)" offset="0.113281"/><stop stop-opacity="1" stop-color="rgb(44.387817%, 38.618469%, 96.543884%)" offset="0.117188"/><stop stop-opacity="1" stop-color="rgb(44.682312%, 38.591003%, 96.031189%)" offset="0.121094"/><stop stop-opacity="1" stop-color="rgb(44.978333%, 38.565063%, 95.518494%)" offset="0.125"/><stop stop-opacity="1" stop-color="rgb(45.272827%, 38.537598%, 95.004272%)" offset="0.128906"/><stop stop-opacity="1" stop-color="rgb(45.568848%, 38.510132%, 94.491577%)" offset="0.132812"/><stop stop-opacity="1" stop-color="rgb(45.863342%, 38.482666%, 93.978882%)" offset="0.136719"/><stop stop-opacity="1" stop-color="rgb(46.159363%, 38.456726%, 93.466187%)" offset="0.140625"/><stop stop-opacity="1" stop-color="rgb(46.453857%, 38.42926%, 92.953491%)" offset="0.144531"/><stop stop-opacity="1" stop-color="rgb(46.749878%, 38.40332%, 92.440796%)" offset="0.148438"/><stop stop-opacity="1" stop-color="rgb(47.044373%, 38.375854%, 91.928101%)" offset="0.152344"/><stop stop-opacity="1" stop-color="rgb(47.338867%, 38.349915%, 91.415405%)" offset="0.15625"/><stop stop-opacity="1" stop-color="rgb(47.633362%, 38.322449%, 90.90271%)" offset="0.160156"/><stop stop-opacity="1" stop-color="rgb(47.929382%, 38.294983%, 90.390015%)" offset="0.164063"/><stop stop-opacity="1" stop-color="rgb(48.223877%, 38.267517%, 89.877319%)" offset="0.167969"/><stop stop-opacity="1" stop-color="rgb(48.519897%, 38.241577%, 89.364624%)" offset="0.171875"/><stop stop-opacity="1" stop-color="rgb(48.814392%, 38.214111%, 88.851929%)" offset="0.175781"/><stop stop-opacity="1" stop-color="rgb(49.110413%, 38.188171%, 88.339233%)" offset="0.179688"/><stop stop-opacity="1" stop-color="rgb(49.404907%, 38.160706%, 87.826538%)" offset="0.183594"/><stop stop-opacity="1" stop-color="rgb(49.700928%, 38.134766%, 87.313843%)" offset="0.1875"/><stop stop-opacity="1" stop-color="rgb(49.995422%, 38.1073%, 86.801147%)" offset="0.191406"/><stop stop-opacity="1" stop-color="rgb(50.289917%, 38.079834%, 86.288452%)" offset="0.195312"/><stop stop-opacity="1" stop-color="rgb(50.584412%, 38.052368%, 85.775757%)" offset="0.199219"/><stop stop-opacity="1" stop-color="rgb(50.880432%, 38.026428%, 85.263062%)" offset="0.203125"/><stop stop-opacity="1" stop-color="rgb(51.174927%, 37.998962%, 84.74884%)" offset="0.207031"/><stop stop-opacity="1" stop-color="rgb(51.470947%, 37.973022%, 84.236145%)" offset="0.210938"/><stop stop-opacity="1" stop-color="rgb(51.765442%, 37.945557%, 83.72345%)" offset="0.214844"/><stop stop-opacity="1" stop-color="rgb(52.061462%, 37.919617%, 83.210754%)" offset="0.21875"/><stop stop-opacity="1" stop-color="rgb(52.355957%, 37.892151%, 82.698059%)" offset="0.222656"/><stop stop-opacity="1" stop-color="rgb(52.651978%, 37.866211%, 82.185364%)" offset="0.226562"/><stop stop-opacity="1" stop-color="rgb(52.946472%, 37.838745%, 81.672668%)" offset="0.230469"/><stop stop-opacity="1" stop-color="rgb(53.242493%, 37.811279%, 81.159973%)" offset="0.234375"/><stop stop-opacity="1" stop-color="rgb(53.536987%, 37.783813%, 80.647278%)" offset="0.238281"/><stop stop-opacity="1" stop-color="rgb(53.831482%, 37.757874%, 80.134583%)" offset="0.242188"/><stop stop-opacity="1" stop-color="rgb(54.125977%, 37.730408%, 79.621887%)" offset="0.246094"/><stop stop-opacity="1" stop-color="rgb(54.421997%, 37.704468%, 79.109192%)" offset="0.25"/><stop stop-opacity="1" stop-color="rgb(54.716492%, 37.677002%, 78.596497%)" offset="0.253906"/><stop stop-opacity="1" stop-color="rgb(55.012512%, 37.651062%, 78.083801%)" offset="0.257812"/><stop stop-opacity="1" stop-color="rgb(55.307007%, 37.623596%, 77.571106%)" offset="0.261719"/><stop stop-opacity="1" stop-color="rgb(55.603027%, 37.59613%, 77.058411%)" offset="0.265625"/><stop stop-opacity="1" stop-color="rgb(55.897522%, 37.568665%, 76.545715%)" offset="0.269531"/><stop stop-opacity="1" stop-color="rgb(56.193542%, 37.542725%, 76.03302%)" offset="0.273437"/><stop stop-opacity="1" stop-color="rgb(56.488037%, 37.515259%, 75.520325%)" offset="0.277344"/><stop stop-opacity="1" stop-color="rgb(56.782532%, 37.489319%, 75.007629%)" offset="0.28125"/><stop stop-opacity="1" stop-color="rgb(57.077026%, 37.461853%, 74.493408%)" offset="0.285156"/><stop stop-opacity="1" stop-color="rgb(57.373047%, 37.435913%, 73.980713%)" offset="0.289062"/><stop stop-opacity="1" stop-color="rgb(57.667542%, 37.408447%, 73.468018%)" offset="0.292969"/><stop stop-opacity="1" stop-color="rgb(57.963562%, 37.382507%, 72.955322%)" offset="0.296875"/><stop stop-opacity="1" stop-color="rgb(58.258057%, 37.355042%, 72.442627%)" offset="0.300781"/><stop stop-opacity="1" stop-color="rgb(58.554077%, 37.327576%, 71.929932%)" offset="0.304688"/><stop stop-opacity="1" stop-color="rgb(58.848572%, 37.30011%, 71.417236%)" offset="0.308594"/><stop stop-opacity="1" stop-color="rgb(59.144592%, 37.27417%, 70.904541%)" offset="0.3125"/><stop stop-opacity="1" stop-color="rgb(59.439087%, 37.246704%, 70.391846%)" offset="0.316406"/><stop stop-opacity="1" stop-color="rgb(59.735107%, 37.220764%, 69.87915%)" offset="0.320312"/><stop stop-opacity="1" stop-color="rgb(60.029602%, 37.193298%, 69.366455%)" offset="0.324219"/><stop stop-opacity="1" stop-color="rgb(60.324097%, 37.167358%, 68.85376%)" offset="0.328125"/><stop stop-opacity="1" stop-color="rgb(60.618591%, 37.139893%, 68.341064%)" offset="0.332031"/><stop stop-opacity="1" stop-color="rgb(60.914612%, 37.112427%, 67.828369%)" offset="0.335938"/><stop stop-opacity="1" stop-color="rgb(61.209106%, 37.084961%, 67.315674%)" offset="0.339844"/><stop stop-opacity="1" stop-color="rgb(61.505127%, 37.059021%, 66.802979%)" offset="0.34375"/><stop stop-opacity="1" stop-color="rgb(61.799622%, 37.031555%, 66.290283%)" offset="0.347656"/><stop stop-opacity="1" stop-color="rgb(62.095642%, 37.005615%, 65.777588%)" offset="0.351562"/><stop stop-opacity="1" stop-color="rgb(62.390137%, 36.978149%, 65.264893%)" offset="0.355469"/><stop stop-opacity="1" stop-color="rgb(62.686157%, 36.952209%, 64.752197%)" offset="0.359375"/><stop stop-opacity="1" stop-color="rgb(62.980652%, 36.924744%, 64.239502%)" offset="0.363281"/><stop stop-opacity="1" stop-color="rgb(63.275146%, 36.897278%, 63.726807%)" offset="0.367188"/><stop stop-opacity="1" stop-color="rgb(63.569641%, 36.869812%, 63.212585%)" offset="0.371094"/><stop stop-opacity="1" stop-color="rgb(63.865662%, 36.843872%, 62.69989%)" offset="0.375"/><stop stop-opacity="1" stop-color="rgb(64.160156%, 36.816406%, 62.187195%)" offset="0.378906"/><stop stop-opacity="1" stop-color="rgb(64.456177%, 36.790466%, 61.6745%)" offset="0.382812"/><stop stop-opacity="1" stop-color="rgb(64.750671%, 36.763%, 61.161804%)" offset="0.386719"/><stop stop-opacity="1" stop-color="rgb(65.046692%, 36.737061%, 60.649109%)" offset="0.390625"/><stop stop-opacity="1" stop-color="rgb(65.341187%, 36.709595%, 60.136414%)" offset="0.394531"/><stop stop-opacity="1" stop-color="rgb(65.637207%, 36.683655%, 59.623718%)" offset="0.398438"/><stop stop-opacity="1" stop-color="rgb(65.931702%, 36.656189%, 59.111023%)" offset="0.402344"/><stop stop-opacity="1" stop-color="rgb(66.227722%, 36.628723%, 58.598328%)" offset="0.40625"/><stop stop-opacity="1" stop-color="rgb(66.522217%, 36.601257%, 58.085632%)" offset="0.410156"/><stop stop-opacity="1" stop-color="rgb(66.816711%, 36.575317%, 57.572937%)" offset="0.414062"/><stop stop-opacity="1" stop-color="rgb(67.111206%, 36.547852%, 57.060242%)" offset="0.417969"/><stop stop-opacity="1" stop-color="rgb(67.407227%, 36.521912%, 56.547546%)" offset="0.421875"/><stop stop-opacity="1" stop-color="rgb(67.701721%, 36.494446%, 56.034851%)" offset="0.425781"/><stop stop-opacity="1" stop-color="rgb(67.997742%, 36.468506%, 55.522156%)" offset="0.429688"/><stop stop-opacity="1" stop-color="rgb(68.292236%, 36.44104%, 55.00946%)" offset="0.433594"/><stop stop-opacity="1" stop-color="rgb(68.588257%, 36.413574%, 54.496765%)" offset="0.4375"/><stop stop-opacity="1" stop-color="rgb(68.882751%, 36.386108%, 53.98407%)" offset="0.441406"/><stop stop-opacity="1" stop-color="rgb(69.178772%, 36.360168%, 53.471375%)" offset="0.445312"/><stop stop-opacity="1" stop-color="rgb(69.473267%, 36.332703%, 52.957153%)" offset="0.449219"/><stop stop-opacity="1" stop-color="rgb(69.767761%, 36.306763%, 52.444458%)" offset="0.453125"/><stop stop-opacity="1" stop-color="rgb(70.062256%, 36.279297%, 51.931763%)" offset="0.457031"/><stop stop-opacity="1" stop-color="rgb(70.358276%, 36.253357%, 51.419067%)" offset="0.460938"/><stop stop-opacity="1" stop-color="rgb(70.652771%, 36.225891%, 50.906372%)" offset="0.464844"/><stop stop-opacity="1" stop-color="rgb(70.948792%, 36.198425%, 50.393677%)" offset="0.46875"/><stop stop-opacity="1" stop-color="rgb(71.243286%, 36.170959%, 49.880981%)" offset="0.472656"/><stop stop-opacity="1" stop-color="rgb(71.539307%, 36.14502%, 49.368286%)" offset="0.476562"/><stop stop-opacity="1" stop-color="rgb(71.833801%, 36.117554%, 48.855591%)" offset="0.480469"/><stop stop-opacity="1" stop-color="rgb(72.129822%, 36.091614%, 48.342896%)" offset="0.484375"/><stop stop-opacity="1" stop-color="rgb(72.424316%, 36.064148%, 47.8302%)" offset="0.488281"/><stop stop-opacity="1" stop-color="rgb(72.720337%, 36.038208%, 47.317505%)" offset="0.492187"/><stop stop-opacity="1" stop-color="rgb(73.014832%, 36.010742%, 46.80481%)" offset="0.496094"/><stop stop-opacity="1" stop-color="rgb(73.309326%, 35.984802%, 46.292114%)" offset="0.5"/><stop stop-opacity="1" stop-color="rgb(73.603821%, 35.957336%, 45.779419%)" offset="0.503906"/><stop stop-opacity="1" stop-color="rgb(73.899841%, 35.929871%, 45.266724%)" offset="0.507812"/><stop stop-opacity="1" stop-color="rgb(74.194336%, 35.902405%, 44.754028%)" offset="0.511719"/><stop stop-opacity="1" stop-color="rgb(74.490356%, 35.876465%, 44.241333%)" offset="0.515625"/><stop stop-opacity="1" stop-color="rgb(74.784851%, 35.848999%, 43.728638%)" offset="0.519531"/><stop stop-opacity="1" stop-color="rgb(75.080872%, 35.823059%, 43.215942%)" offset="0.523438"/><stop stop-opacity="1" stop-color="rgb(75.375366%, 35.795593%, 42.701721%)" offset="0.527344"/><stop stop-opacity="1" stop-color="rgb(75.671387%, 35.769653%, 42.189026%)" offset="0.53125"/><stop stop-opacity="1" stop-color="rgb(75.965881%, 35.742188%, 41.676331%)" offset="0.535156"/><stop stop-opacity="1" stop-color="rgb(76.260376%, 35.714722%, 41.163635%)" offset="0.539062"/><stop stop-opacity="1" stop-color="rgb(76.554871%, 35.687256%, 40.65094%)" offset="0.542969"/><stop stop-opacity="1" stop-color="rgb(76.850891%, 35.661316%, 40.138245%)" offset="0.546875"/><stop stop-opacity="1" stop-color="rgb(77.145386%, 35.63385%, 39.625549%)" offset="0.550781"/><stop stop-opacity="1" stop-color="rgb(77.441406%, 35.60791%, 39.112854%)" offset="0.554688"/><stop stop-opacity="1" stop-color="rgb(77.735901%, 35.580444%, 38.600159%)" offset="0.558594"/><stop stop-opacity="1" stop-color="rgb(78.031921%, 35.554504%, 38.087463%)" offset="0.5625"/><stop stop-opacity="1" stop-color="rgb(78.326416%, 35.527039%, 37.574768%)" offset="0.566406"/><stop stop-opacity="1" stop-color="rgb(78.622437%, 35.501099%, 37.062073%)" offset="0.570312"/><stop stop-opacity="1" stop-color="rgb(78.916931%, 35.473633%, 36.549377%)" offset="0.574219"/><stop stop-opacity="1" stop-color="rgb(79.212952%, 35.446167%, 36.036682%)" offset="0.578125"/><stop stop-opacity="1" stop-color="rgb(79.507446%, 35.418701%, 35.523987%)" offset="0.582031"/><stop stop-opacity="1" stop-color="rgb(79.801941%, 35.392761%, 35.011292%)" offset="0.585938"/><stop stop-opacity="1" stop-color="rgb(80.096436%, 35.365295%, 34.498596%)" offset="0.589844"/><stop stop-opacity="1" stop-color="rgb(80.392456%, 35.339355%, 33.985901%)" offset="0.59375"/><stop stop-opacity="1" stop-color="rgb(80.686951%, 35.31189%, 33.473206%)" offset="0.597656"/><stop stop-opacity="1" stop-color="rgb(80.982971%, 35.28595%, 32.96051%)" offset="0.601562"/><stop stop-opacity="1" stop-color="rgb(81.277466%, 35.258484%, 32.447815%)" offset="0.605469"/><stop stop-opacity="1" stop-color="rgb(81.573486%, 35.231018%, 31.93512%)" offset="0.609375"/><stop stop-opacity="1" stop-color="rgb(81.867981%, 35.203552%, 31.420898%)" offset="0.613281"/><stop stop-opacity="1" stop-color="rgb(82.164001%, 35.177612%, 30.908203%)" offset="0.617188"/><stop stop-opacity="1" stop-color="rgb(82.458496%, 35.150146%, 30.395508%)" offset="0.621094"/><stop stop-opacity="1" stop-color="rgb(82.752991%, 35.124207%, 29.882812%)" offset="0.625"/><stop stop-opacity="1" stop-color="rgb(83.047485%, 35.096741%, 29.370117%)" offset="0.628906"/><stop stop-opacity="1" stop-color="rgb(83.343506%, 35.070801%, 28.857422%)" offset="0.632812"/><stop stop-opacity="1" stop-color="rgb(83.638%, 35.043335%, 28.344727%)" offset="0.636719"/><stop stop-opacity="1" stop-color="rgb(83.934021%, 35.015869%, 27.832031%)" offset="0.640625"/><stop stop-opacity="1" stop-color="rgb(84.228516%, 34.988403%, 27.319336%)" offset="0.644531"/><stop stop-opacity="1" stop-color="rgb(84.524536%, 34.962463%, 26.806641%)" offset="0.648438"/><stop stop-opacity="1" stop-color="rgb(84.819031%, 34.934998%, 26.293945%)" offset="0.652344"/><stop stop-opacity="1" stop-color="rgb(85.115051%, 34.909058%, 25.78125%)" offset="0.65625"/><stop stop-opacity="1" stop-color="rgb(85.409546%, 34.881592%, 25.268555%)" offset="0.660156"/><stop stop-opacity="1" stop-color="rgb(85.705566%, 34.855652%, 24.755859%)" offset="0.664062"/><stop stop-opacity="1" stop-color="rgb(86.000061%, 34.828186%, 24.243164%)" offset="0.667969"/><stop stop-opacity="1" stop-color="rgb(86.294556%, 34.802246%, 23.730469%)" offset="0.671875"/><stop stop-opacity="1" stop-color="rgb(86.58905%, 34.77478%, 23.217773%)" offset="0.675781"/><stop stop-opacity="1" stop-color="rgb(86.885071%, 34.747314%, 22.705078%)" offset="0.679687"/><stop stop-opacity="1" stop-color="rgb(87.179565%, 34.719849%, 22.192383%)" offset="0.683594"/><stop stop-opacity="1" stop-color="rgb(87.475586%, 34.693909%, 21.679688%)" offset="0.6875"/><stop stop-opacity="1" stop-color="rgb(87.770081%, 34.666443%, 21.165466%)" offset="0.691406"/><stop stop-opacity="1" stop-color="rgb(88.066101%, 34.640503%, 20.652771%)" offset="0.695312"/><stop stop-opacity="1" stop-color="rgb(88.360596%, 34.613037%, 20.140076%)" offset="0.699219"/><stop stop-opacity="1" stop-color="rgb(88.656616%, 34.587097%, 19.62738%)" offset="0.703125"/><stop stop-opacity="1" stop-color="rgb(88.951111%, 34.559631%, 19.114685%)" offset="0.707031"/><stop stop-opacity="1" stop-color="rgb(89.245605%, 34.532166%, 18.60199%)" offset="0.710938"/><stop stop-opacity="1" stop-color="rgb(89.5401%, 34.5047%, 18.089294%)" offset="0.714844"/><stop stop-opacity="1" stop-color="rgb(89.836121%, 34.47876%, 17.576599%)" offset="0.71875"/><stop stop-opacity="1" stop-color="rgb(90.130615%, 34.451294%, 17.063904%)" offset="0.722656"/><stop stop-opacity="1" stop-color="rgb(90.426636%, 34.425354%, 16.551208%)" offset="0.726562"/><stop stop-opacity="1" stop-color="rgb(90.72113%, 34.397888%, 16.038513%)" offset="0.730469"/><stop stop-opacity="1" stop-color="rgb(91.017151%, 34.371948%, 15.525818%)" offset="0.734375"/><stop stop-opacity="1" stop-color="rgb(91.311646%, 34.344482%, 15.013123%)" offset="0.738281"/><stop stop-opacity="1" stop-color="rgb(91.607666%, 34.318542%, 14.500427%)" offset="0.742188"/><stop stop-opacity="1" stop-color="rgb(91.902161%, 34.291077%, 13.987732%)" offset="0.746094"/><stop stop-opacity="1" stop-color="rgb(92.198181%, 34.263611%, 13.475037%)" offset="0.75"/><stop stop-opacity="1" stop-color="rgb(92.492676%, 34.236145%, 12.962341%)" offset="0.753906"/><stop stop-opacity="1" stop-color="rgb(92.78717%, 34.210205%, 12.449646%)" offset="0.757812"/><stop stop-opacity="1" stop-color="rgb(93.081665%, 34.182739%, 11.936951%)" offset="0.761719"/><stop stop-opacity="1" stop-color="rgb(93.377686%, 34.156799%, 11.424255%)" offset="0.765625"/><stop stop-opacity="1" stop-color="rgb(93.67218%, 34.129333%, 10.910034%)" offset="0.769531"/><stop stop-opacity="1" stop-color="rgb(93.968201%, 34.103394%, 10.397339%)" offset="0.773438"/><stop stop-opacity="1" stop-color="rgb(94.262695%, 34.075928%, 9.884644%)" offset="0.777344"/><stop stop-opacity="1" stop-color="rgb(94.558716%, 34.048462%, 9.371948%)" offset="0.78125"/><stop stop-opacity="1" stop-color="rgb(94.85321%, 34.020996%, 8.859253%)" offset="0.785156"/><stop stop-opacity="1" stop-color="rgb(95.149231%, 33.995056%, 8.346558%)" offset="0.789062"/><stop stop-opacity="1" stop-color="rgb(95.443726%, 33.96759%, 7.833862%)" offset="0.792969"/><stop stop-opacity="1" stop-color="rgb(95.73822%, 33.94165%, 7.321167%)" offset="0.796875"/><stop stop-opacity="1" stop-color="rgb(96.032715%, 33.914185%, 6.808472%)" offset="0.800781"/><stop stop-opacity="1" stop-color="rgb(96.328735%, 33.888245%, 6.295776%)" offset="0.804687"/><stop stop-opacity="1" stop-color="rgb(96.62323%, 33.860779%, 5.783081%)" offset="0.808594"/><stop stop-opacity="1" stop-color="rgb(96.91925%, 33.833313%, 5.270386%)" offset="0.8125"/><stop stop-opacity="1" stop-color="rgb(97.213745%, 33.805847%, 4.75769%)" offset="0.816406"/><stop stop-opacity="1" stop-color="rgb(97.509766%, 33.779907%, 4.244995%)" offset="0.820312"/><stop stop-opacity="1" stop-color="rgb(97.80426%, 33.752441%, 3.7323%)" offset="0.824219"/><stop stop-opacity="1" stop-color="rgb(98.100281%, 33.726501%, 3.219604%)" offset="0.828125"/><stop stop-opacity="1" stop-color="rgb(98.249817%, 33.712769%, 2.958679%)" offset="0.832031"/><stop stop-opacity="1" stop-color="rgb(98.399353%, 33.699036%, 2.69928%)" offset="0.835938"/><stop stop-opacity="1" stop-color="rgb(98.399353%, 33.699036%, 2.69928%)" offset="0.84375"/><stop stop-opacity="1" stop-color="rgb(98.399353%, 33.699036%, 2.69928%)" offset="0.875"/><stop stop-opacity="1" stop-color="rgb(98.399353%, 33.699036%, 2.69928%)" offset="1"/></linearGradient></defs><g clip-path="url(#id3)"><g clip-path="url(#id4)"><path fill="url(#id5)" d="M 47.179688 4.019531 L 47.179688 50.511719 L 91.425781 50.511719 L 91.425781 4.019531 Z M 47.179688 4.019531 " fill-rule="nonzero"/></g></g><g fill="rgb(100%, 100%, 100%)" fill-opacity="1"><g transform="translate(24.90983, 30.174686)"><g><path d="M 4.875 0.1875 C 3.894531 0.1875 2.957031 0.046875 2.0625 -0.234375 C 1.175781 -0.515625 0.484375 -0.867188 -0.015625 -1.296875 L 0.96875 -3.140625 C 1.5 -2.710938 2.128906 -2.375 2.859375 -2.125 C 3.585938 -1.882812 4.328125 -1.765625 5.078125 -1.765625 C 6.003906 -1.765625 6.738281 -1.921875 7.28125 -2.234375 C 7.832031 -2.554688 8.109375 -2.992188 8.109375 -3.546875 C 8.109375 -3.859375 8 -4.117188 7.78125 -4.328125 C 7.5625 -4.546875 7.285156 -4.71875 6.953125 -4.84375 C 6.617188 -4.976562 6.160156 -5.128906 5.578125 -5.296875 C 4.753906 -5.535156 4.085938 -5.765625 3.578125 -5.984375 C 3.078125 -6.210938 2.644531 -6.546875 2.28125 -6.984375 C 1.925781 -7.429688 1.75 -8.015625 1.75 -8.734375 C 1.75 -9.546875 1.976562 -10.257812 2.4375 -10.875 C 2.90625 -11.488281 3.550781 -11.960938 4.375 -12.296875 C 5.207031 -12.628906 6.164062 -12.796875 7.25 -12.796875 C 8.0625 -12.796875 8.832031 -12.703125 9.5625 -12.515625 C 10.300781 -12.335938 10.9375 -12.078125 11.46875 -11.734375 L 10.546875 -9.875 C 10.078125 -10.1875 9.546875 -10.425781 8.953125 -10.59375 C 8.367188 -10.769531 7.757812 -10.859375 7.125 -10.859375 C 6.1875 -10.859375 5.441406 -10.6875 4.890625 -10.34375 C 4.347656 -10 4.078125 -9.546875 4.078125 -8.984375 C 4.078125 -8.660156 4.191406 -8.390625 4.421875 -8.171875 C 4.648438 -7.953125 4.925781 -7.78125 5.25 -7.65625 C 5.570312 -7.53125 6.046875 -7.367188 6.671875 -7.171875 C 7.460938 -6.941406 8.109375 -6.71875 8.609375 -6.5 C 9.117188 -6.289062 9.550781 -5.972656 9.90625 -5.546875 C 10.257812 -5.128906 10.4375 -4.582031 10.4375 -3.90625 C 10.4375 -3.082031 10.203125 -2.363281 9.734375 -1.75 C 9.273438 -1.132812 8.625 -0.65625 7.78125 -0.3125 C 6.9375 0.0195312 5.96875 0.1875 4.875 0.1875 Z M 4.875 0.1875 "/></g></g></g><g fill="rgb(100%, 100%, 100%)" fill-opacity="1"><g transform="translate(36.247242, 30.174686)"><g><path d="M 7.828125 -6.75 L 12.3125 0 L 9.703125 0 L 6.109375 -5.3125 L 3.71875 -3.234375 L 3.0625 0 L 0.734375 0 L 3.265625 -12.625 L 5.59375 -12.625 L 4.3125 -6.234375 L 11.640625 -12.625 L 14.609375 -12.625 L 7.859375 -6.765625 Z M 7.828125 -6.75 "/></g></g></g><g fill="rgb(100%, 100%, 100%)" fill-opacity="1"><g transform="translate(49.387109, 30.174686)"><g><path d="M 5.1875 -10.65625 L 4.546875 -7.375 L 10.65625 -7.375 L 10.28125 -5.453125 L 4.140625 -5.453125 L 3.46875 -1.96875 L 10.609375 -1.96875 L 10.203125 0 L 0.734375 0 L 3.265625 -12.625 L 12.484375 -12.625 L 12.078125 -10.65625 Z M 5.1875 -10.65625 "/></g></g></g><g fill="rgb(100%, 100%, 100%)" fill-opacity="1"><g transform="translate(61.463528, 30.174686)"><g><path d="M 5.421875 -10.640625 L 1.25 -10.640625 L 1.640625 -12.625 L 12.34375 -12.625 L 11.9375 -10.640625 L 7.75 -10.640625 L 5.640625 0 L 3.296875 0 Z M 5.421875 -10.640625 "/></g></g></g><g fill="rgb(100%, 100%, 100%)" fill-opacity="1"><g transform="translate(72.314281, 30.174686)"><g><path d="M 7.140625 0.1875 C 5.878906 0.1875 4.785156 -0.0351562 3.859375 -0.484375 C 2.941406 -0.941406 2.238281 -1.578125 1.75 -2.390625 C 1.257812 -3.210938 1.015625 -4.15625 1.015625 -5.21875 C 1.015625 -6.632812 1.335938 -7.914062 1.984375 -9.0625 C 2.628906 -10.21875 3.539062 -11.128906 4.71875 -11.796875 C 5.894531 -12.460938 7.25 -12.796875 8.78125 -12.796875 C 9.875 -12.796875 10.835938 -12.613281 11.671875 -12.25 C 12.503906 -11.894531 13.140625 -11.375 13.578125 -10.6875 L 11.875 -9.265625 C 11.164062 -10.253906 10.082031 -10.75 8.625 -10.75 C 7.570312 -10.75 6.648438 -10.503906 5.859375 -10.015625 C 5.066406 -9.535156 4.453125 -8.882812 4.015625 -8.0625 C 3.585938 -7.238281 3.375 -6.335938 3.375 -5.359375 C 3.375 -4.285156 3.710938 -3.4375 4.390625 -2.8125 C 5.078125 -2.1875 6.054688 -1.875 7.328125 -1.875 C 8.773438 -1.875 9.96875 -2.359375 10.90625 -3.328125 L 12.28125 -1.859375 C 11.675781 -1.171875 10.9375 -0.65625 10.0625 -0.3125 C 9.1875 0.0195312 8.210938 0.1875 7.140625 0.1875 Z M 7.140625 0.1875 "/></g></g></g><g fill="rgb(100%, 100%, 100%)" fill-opacity="1"><g transform="translate(85.418095, 30.174686)"><g><path d="M 14.46875 -12.625 L 11.9375 0 L 9.609375 0 L 10.671875 -5.359375 L 4.140625 -5.359375 L 3.078125 0 L 0.734375 0 L 3.265625 -12.625 L 5.609375 -12.625 L 4.578125 -7.453125 L 11.109375 -7.453125 L 12.140625 -12.625 Z M 14.46875 -12.625 "/></g></g></g><g fill="rgb(100%, 100%, 100%)" fill-opacity="1"><g transform="translate(78.417214, 51.60959)"><g><path d="M 7.140625 0.1875 C 5.878906 0.1875 4.785156 -0.0351562 3.859375 -0.484375 C 2.941406 -0.941406 2.238281 -1.578125 1.75 -2.390625 C 1.257812 -3.210938 1.015625 -4.15625 1.015625 -5.21875 C 1.015625 -6.632812 1.335938 -7.914062 1.984375 -9.0625 C 2.628906 -10.21875 3.539062 -11.128906 4.71875 -11.796875 C 5.894531 -12.460938 7.25 -12.796875 8.78125 -12.796875 C 9.875 -12.796875 10.835938 -12.613281 11.671875 -12.25 C 12.503906 -11.894531 13.140625 -11.375 13.578125 -10.6875 L 11.875 -9.265625 C 11.164062 -10.253906 10.082031 -10.75 8.625 -10.75 C 7.570312 -10.75 6.648438 -10.503906 5.859375 -10.015625 C 5.066406 -9.535156 4.453125 -8.882812 4.015625 -8.0625 C 3.585938 -7.238281 3.375 -6.335938 3.375 -5.359375 C 3.375 -4.285156 3.710938 -3.4375 4.390625 -2.8125 C 5.078125 -2.1875 6.054688 -1.875 7.328125 -1.875 C 8.773438 -1.875 9.96875 -2.359375 10.90625 -3.328125 L 12.28125 -1.859375 C 11.675781 -1.171875 10.9375 -0.65625 10.0625 -0.3125 C 9.1875 0.0195312 8.210938 0.1875 7.140625 0.1875 Z M 7.140625 0.1875 "/></g></g></g><g fill="rgb(100%, 100%, 100%)" fill-opacity="1"><g transform="translate(91.521028, 51.60959)"><g><path d="M 7.046875 0.1875 C 5.796875 0.1875 4.71875 -0.0351562 3.8125 -0.484375 C 2.90625 -0.941406 2.210938 -1.578125 1.734375 -2.390625 C 1.253906 -3.203125 1.015625 -4.144531 1.015625 -5.21875 C 1.015625 -6.632812 1.332031 -7.914062 1.96875 -9.0625 C 2.613281 -10.21875 3.523438 -11.128906 4.703125 -11.796875 C 5.878906 -12.460938 7.226562 -12.796875 8.75 -12.796875 C 10 -12.796875 11.078125 -12.570312 11.984375 -12.125 C 12.890625 -11.675781 13.582031 -11.046875 14.0625 -10.234375 C 14.539062 -9.421875 14.78125 -8.476562 14.78125 -7.40625 C 14.78125 -5.988281 14.457031 -4.703125 13.8125 -3.546875 C 13.175781 -2.398438 12.269531 -1.488281 11.09375 -0.8125 C 9.914062 -0.144531 8.566406 0.1875 7.046875 0.1875 Z M 7.25 -1.875 C 8.269531 -1.875 9.171875 -2.113281 9.953125 -2.59375 C 10.742188 -3.082031 11.351562 -3.738281 11.78125 -4.5625 C 12.207031 -5.394531 12.421875 -6.296875 12.421875 -7.265625 C 12.421875 -8.328125 12.082031 -9.171875 11.40625 -9.796875 C 10.726562 -10.429688 9.769531 -10.75 8.53125 -10.75 C 7.507812 -10.75 6.601562 -10.503906 5.8125 -10.015625 C 5.03125 -9.523438 4.425781 -8.867188 4 -8.046875 C 3.582031 -7.222656 3.375 -6.328125 3.375 -5.359375 C 3.375 -4.296875 3.707031 -3.445312 4.375 -2.8125 C 5.050781 -2.1875 6.007812 -1.875 7.25 -1.875 Z M 7.25 -1.875 "/></g></g></g><g fill="rgb(100%, 100%, 100%)" fill-opacity="1"><g transform="translate(106.697661, 51.60959)"><g><path d="M 3.265625 -12.625 L 8.359375 -12.625 C 9.628906 -12.625 10.722656 -12.410156 11.640625 -11.984375 C 12.566406 -11.554688 13.273438 -10.953125 13.765625 -10.171875 C 14.253906 -9.390625 14.5 -8.46875 14.5 -7.40625 C 14.5 -5.925781 14.171875 -4.628906 13.515625 -3.515625 C 12.859375 -2.398438 11.9375 -1.535156 10.75 -0.921875 C 9.5625 -0.304688 8.191406 0 6.640625 0 L 0.734375 0 Z M 6.703125 -1.984375 C 7.804688 -1.984375 8.765625 -2.210938 9.578125 -2.671875 C 10.398438 -3.128906 11.03125 -3.753906 11.46875 -4.546875 C 11.914062 -5.347656 12.140625 -6.253906 12.140625 -7.265625 C 12.140625 -8.328125 11.796875 -9.15625 11.109375 -9.75 C 10.421875 -10.34375 9.421875 -10.640625 8.109375 -10.640625 L 5.21875 -10.640625 L 3.484375 -1.984375 Z M 6.703125 -1.984375 "/></g></g></g><g fill="rgb(100%, 100%, 100%)" fill-opacity="1"><g transform="translate(121.585907, 51.60959)"><g><path d="M 5.1875 -10.65625 L 4.546875 -7.375 L 10.65625 -7.375 L 10.28125 -5.453125 L 4.140625 -5.453125 L 3.46875 -1.96875 L 10.609375 -1.96875 L 10.203125 0 L 0.734375 0 L 3.265625 -12.625 L 12.484375 -12.625 L 12.078125 -10.65625 Z M 5.1875 -10.65625 "/></g></g></g><g fill="rgb(98.429871%, 33.729553%, 2.749634%)" fill-opacity="1"><g transform="translate(106.04634, 32.285469)"><g><path d="M 4.65625 -2.578125 L 12.21875 -2.578125 L 11.671875 0 L -0.421875 0 L -0.03125 -2.046875 L 7.71875 -8.171875 C 8.726562 -8.972656 9.421875 -9.65625 9.796875 -10.21875 C 10.179688 -10.78125 10.375 -11.367188 10.375 -11.984375 C 10.375 -12.640625 10.132812 -13.148438 9.65625 -13.515625 C 9.1875 -13.878906 8.488281 -14.0625 7.5625 -14.0625 C 6.820312 -14.0625 6.113281 -13.910156 5.4375 -13.609375 C 4.769531 -13.304688 4.175781 -12.875 3.65625 -12.3125 L 1.59375 -13.953125 C 2.28125 -14.773438 3.1875 -15.429688 4.3125 -15.921875 C 5.445312 -16.421875 6.671875 -16.671875 7.984375 -16.671875 C 9.109375 -16.671875 10.085938 -16.488281 10.921875 -16.125 C 11.753906 -15.769531 12.390625 -15.265625 12.828125 -14.609375 C 13.265625 -13.960938 13.484375 -13.226562 13.484375 -12.40625 C 13.484375 -11.394531 13.207031 -10.441406 12.65625 -9.546875 C 12.113281 -8.660156 11.148438 -7.675781 9.765625 -6.59375 Z M 4.65625 -2.578125 "/></g></g></g></svg>