<svg id="logo" xmlns="http://www.w3.org/2000/svg" xmlns:xlink="http://www.w3.org/1999/xlink" width="96" height="50" viewBox="0 0 96 50">
  <defs>
    <clipPath id="clip-path">
      <path id="Trazado_124" data-name="Trazado 124" d="M47.176,4.016h44.25v46.5H47.176Zm0,0" transform="translate(-47.176 -4.016)"/>
    </clipPath>
    <clipPath id="clip-path-2">
      <path id="Trazado_123" data-name="Trazado 123" d="M72.594,25.68H52.844a1.156,1.156,0,0,1-1.113-1.469L57.152,4.867a1.158,1.158,0,0,1,1.113-.848h19.75a1.159,1.159,0,0,1,1.113,1.473L73.707,24.836A1.154,1.154,0,0,1,72.594,25.68ZM59.766,40.285l2.793-9.961a1.159,1.159,0,0,0-1.113-1.473H51.293a1.154,1.154,0,0,0-1.113.848l-2.793,9.957A1.159,1.159,0,0,0,48.5,41.129H58.652A1.159,1.159,0,0,0,59.766,40.285ZM64.9,29.7,59.48,49.043a1.156,1.156,0,0,0,1.113,1.469H80.348a1.158,1.158,0,0,0,1.113-.844l5.422-19.344a1.159,1.159,0,0,0-1.113-1.473H66.016A1.161,1.161,0,0,0,64.9,29.7ZM78.848,14.25l-2.793,9.961a1.156,1.156,0,0,0,1.113,1.469H87.32a1.155,1.155,0,0,0,1.113-.844l2.793-9.961a1.156,1.156,0,0,0-1.113-1.469H79.961A1.151,1.151,0,0,0,78.848,14.25Zm0,0" transform="translate(-47.343 -4.02)"/>
    </clipPath>
    <linearGradient id="linear-gradient" x1="0.5" x2="0.5" y2="1" gradientUnits="objectBoundingBox">
      <stop offset="0" stop-color="#fff"/>
      <stop offset="0.113" stop-color="#cfe2ff"/>
      <stop offset="1" stop-color="#3a86ff"/>
    </linearGradient>
  </defs>
  <g id="Grupo_5" data-name="Grupo 5" transform="translate(20.283)" clip-path="url(#clip-path)">
    <g id="Grupo_4" data-name="Grupo 4" transform="translate(0.167 0.004)" clip-path="url(#clip-path-2)">
      <path id="Trazado_122" data-name="Trazado 122" d="M47.18,4.02V50.512H91.426V4.02Zm0,0" transform="translate(-47.343 -4.02)" fill="url(#linear-gradient)"/>
    </g>
  </g>
  <g id="Grupo_8" data-name="Grupo 8" transform="translate(0 13.362)">
    <g id="Grupo_7" data-name="Grupo 7">
      <g id="Grupo_6" data-name="Grupo 6">
        <path id="Trazado_125" data-name="Trazado 125" d="M4.875.188A9.322,9.322,0,0,1,2.063-.234,5.9,5.9,0,0,1-.016-1.3L.969-3.141A6.12,6.12,0,0,0,2.859-2.125a6.98,6.98,0,0,0,2.219.359,4.416,4.416,0,0,0,2.2-.469,1.467,1.467,0,0,0,.828-1.312,1.038,1.038,0,0,0-.328-.781,2.3,2.3,0,0,0-.828-.516c-.336-.133-.793-.285-1.375-.453a17.476,17.476,0,0,1-2-.687,3.615,3.615,0,0,1-1.3-1,2.725,2.725,0,0,1-.531-1.75,3.472,3.472,0,0,1,.688-2.141A4.512,4.512,0,0,1,4.375-12.3a7.71,7.71,0,0,1,2.875-.5,9.261,9.261,0,0,1,2.313.281,6.174,6.174,0,0,1,1.906.781l-.922,1.859a5.6,5.6,0,0,0-1.594-.719,6.332,6.332,0,0,0-1.828-.266,4.2,4.2,0,0,0-2.234.516,1.552,1.552,0,0,0-.812,1.359,1.072,1.072,0,0,0,.344.813,2.441,2.441,0,0,0,.828.516c.32.125.8.289,1.422.484A16.6,16.6,0,0,1,8.609-6.5a3.328,3.328,0,0,1,1.3.953,2.465,2.465,0,0,1,.531,1.641,3.45,3.45,0,0,1-.7,2.156A4.459,4.459,0,0,1,7.781-.312,7.894,7.894,0,0,1,4.875.188Zm0,0" transform="translate(0.016 12.797)" fill="#939393"/>
      </g>
    </g>
  </g>
  <g id="Grupo_11" data-name="Grupo 11" transform="translate(12.087 13.534)">
    <g id="Grupo_10" data-name="Grupo 10">
      <g id="Grupo_9" data-name="Grupo 9">
        <path id="Trazado_126" data-name="Trazado 126" d="M7.828-6.75,12.313,0H9.7L6.109-5.312,3.719-3.234,3.063,0H.734L3.266-12.625H5.594L4.313-6.234l7.328-6.391h2.969L7.859-6.766Zm0,0" transform="translate(-0.734 12.625)" fill="#939393"/>
      </g>
    </g>
  </g>
  <g id="Grupo_14" data-name="Grupo 14" transform="translate(23.798 13.534)">
    <g id="Grupo_13" data-name="Grupo 13">
      <g id="Grupo_12" data-name="Grupo 12">
        <path id="Trazado_127" data-name="Trazado 127" d="M5.188-10.656,4.547-7.375h6.109l-.375,1.922H4.141L3.469-1.969h7.141L10.2,0H.734L3.266-12.625h9.219l-.406,1.969Zm0,0" transform="translate(-0.734 12.625)" fill="#939393"/>
      </g>
    </g>
  </g>
  <g id="Grupo_17" data-name="Grupo 17" transform="translate(35.692 13.534)">
    <g id="Grupo_16" data-name="Grupo 16">
      <g id="Grupo_15" data-name="Grupo 15">
        <path id="Trazado_128" data-name="Trazado 128" d="M5.422-10.641H1.25l.391-1.984h10.7l-.406,1.984H7.75L5.641,0H3.3Zm0,0" transform="translate(-1.25 12.625)" fill="#939393"/>
      </g>
    </g>
  </g>
  <g id="Grupo_20" data-name="Grupo 20" transform="translate(45.666 13.362)">
    <g id="Grupo_19" data-name="Grupo 19">
      <g id="Grupo_18" data-name="Grupo 18">
        <path id="Trazado_129" data-name="Trazado 129" d="M7.141.188A7.443,7.443,0,0,1,3.859-.484,4.984,4.984,0,0,1,1.75-2.391a5.394,5.394,0,0,1-.734-2.828,7.678,7.678,0,0,1,.969-3.844A7.023,7.023,0,0,1,4.719-11.8a8.124,8.124,0,0,1,4.063-1,7.186,7.186,0,0,1,2.891.547,4.087,4.087,0,0,1,1.906,1.563l-1.7,1.422a3.737,3.737,0,0,0-3.25-1.484,5.149,5.149,0,0,0-2.766.734A4.982,4.982,0,0,0,4.016-8.062a5.76,5.76,0,0,0-.641,2.7A3.285,3.285,0,0,0,4.391-2.812a4.211,4.211,0,0,0,2.938.938,4.769,4.769,0,0,0,3.578-1.453l1.375,1.469A5.673,5.673,0,0,1,10.063-.312,8.19,8.19,0,0,1,7.141.188Zm0,0" transform="translate(-1.016 12.797)" fill="#939393"/>
      </g>
    </g>
  </g>
  <g id="Grupo_23" data-name="Grupo 23" transform="translate(57.708 13.534)">
    <g id="Grupo_22" data-name="Grupo 22">
      <g id="Grupo_21" data-name="Grupo 21">
        <path id="Trazado_130" data-name="Trazado 130" d="M14.469-12.625,11.938,0H9.609l1.063-5.359H4.141L3.078,0H.734L3.266-12.625H5.609L4.578-7.453h6.531l1.031-5.172Zm0,0" transform="translate(-0.734 12.625)" fill="#939393"/>
      </g>
    </g>
  </g>
  <g id="Grupo_38" data-name="Grupo 38" transform="translate(75.73 11.598)">
    <g id="Grupo_37" data-name="Grupo 37">
      <g id="Grupo_36" data-name="Grupo 36">
        <path id="Trazado_135" data-name="Trazado 135" d="M4.656-2.578h7.563L11.672,0H-.422l.391-2.047,7.75-6.125A10.131,10.131,0,0,0,9.8-10.219a3.09,3.09,0,0,0,.578-1.766,1.824,1.824,0,0,0-.719-1.531,3.383,3.383,0,0,0-2.094-.547,5.166,5.166,0,0,0-2.125.453,5.526,5.526,0,0,0-1.781,1.3L1.594-13.953a7.279,7.279,0,0,1,2.719-1.969,9,9,0,0,1,3.672-.75,7.313,7.313,0,0,1,2.938.547,4.2,4.2,0,0,1,1.906,1.516,3.848,3.848,0,0,1,.656,2.2,5.365,5.365,0,0,1-.828,2.859A12.157,12.157,0,0,1,9.766-6.594Zm0,0" transform="translate(0.422 16.672)" fill="#fb5607"/>
      </g>
    </g>
  </g>
  <text id="WEB" transform="translate(49 46)" fill="#939393" font-size="20" font-family="Verdana-Italic, Verdana" font-style="italic"><tspan x="0" y="0">WEB</tspan></text>
</svg>
