<svg xmlns="http://www.w3.org/2000/svg" xmlns:xlink="http://www.w3.org/1999/xlink" width="210" zoomAndPan="magnify" viewBox="0 0 157.5 60" height="80" preserveAspectRatio="xMidYMid meet" version="1.0"><defs><g><g id="id1"/><g id="id2"/><g id="id3"/></g><clipPath id="id4"><path d="M 47.175781 4.015625 L 91.425781 4.015625 L 91.425781 50.515625 L 47.175781 50.515625 Z M 47.175781 4.015625 " clip-rule="nonzero"/></clipPath><clipPath id="id5"><path d="M 72.59375 25.679688 L 52.84375 25.679688 C 52.078125 25.679688 51.523438 24.949219 51.730469 24.210938 L 57.152344 4.867188 C 57.292969 4.367188 57.746094 4.019531 58.265625 4.019531 L 78.015625 4.019531 C 78.78125 4.019531 79.335938 4.753906 79.128906 5.492188 L 73.707031 24.835938 C 73.566406 25.335938 73.113281 25.679688 72.59375 25.679688 Z M 59.765625 40.285156 L 62.558594 30.324219 C 62.765625 29.585938 62.210938 28.851562 61.445312 28.851562 L 51.292969 28.851562 C 50.773438 28.851562 50.316406 29.199219 50.179688 29.699219 L 47.386719 39.65625 C 47.179688 40.394531 47.734375 41.128906 48.5 41.128906 L 58.652344 41.128906 C 59.171875 41.128906 59.625 40.78125 59.765625 40.285156 Z M 64.902344 29.699219 L 59.480469 49.042969 C 59.273438 49.78125 59.828125 50.511719 60.59375 50.511719 L 80.347656 50.511719 C 80.863281 50.511719 81.320312 50.167969 81.460938 49.667969 L 86.882812 30.324219 C 87.089844 29.585938 86.535156 28.851562 85.769531 28.851562 L 66.015625 28.851562 C 65.5 28.851562 65.042969 29.199219 64.902344 29.699219 Z M 78.847656 14.25 L 76.054688 24.210938 C 75.847656 24.949219 76.402344 25.679688 77.167969 25.679688 L 87.320312 25.679688 C 87.839844 25.679688 88.292969 25.335938 88.433594 24.835938 L 91.226562 14.875 C 91.433594 14.136719 90.878906 13.40625 90.113281 13.40625 L 79.960938 13.40625 C 79.441406 13.40625 78.984375 13.75 78.847656 14.25 Z M 78.847656 14.25 " clip-rule="nonzero"/></clipPath><linearGradient x1="114.296443" gradientTransform="matrix(0.0928841, 0, 0, 0.0929836, 47.342595, 4.021001)" y1="-47.633969" x2="358.610856" gradientUnits="userSpaceOnUse" y2="547.607232" xlink:type="simple" xlink:actuate="onLoad" id="id6" xlink:show="other"><stop stop-opacity="1" stop-color="rgb(100%, 100%, 100%)" offset="0"/><stop stop-opacity="1" stop-color="rgb(100%, 100%, 100%)" offset="0.0625"/><stop stop-opacity="1" stop-color="rgb(99.848938%, 99.906921%, 100%)" offset="0.09375"/><stop stop-opacity="1" stop-color="rgb(99.290466%, 99.563599%, 100%)" offset="0.0976562"/><stop stop-opacity="1" stop-color="rgb(98.883057%, 99.313354%, 100%)" offset="0.101562"/><stop stop-opacity="1" stop-color="rgb(98.475647%, 99.06311%, 100%)" offset="0.105469"/><stop stop-opacity="1" stop-color="rgb(98.068237%, 98.812866%, 100%)" offset="0.109375"/><stop stop-opacity="1" stop-color="rgb(97.660828%, 98.562622%, 100%)" offset="0.113281"/><stop stop-opacity="1" stop-color="rgb(97.253418%, 98.312378%, 100%)" offset="0.117187"/><stop stop-opacity="1" stop-color="rgb(96.846008%, 98.062134%, 100%)" offset="0.121094"/><stop stop-opacity="1" stop-color="rgb(96.438599%, 97.81189%, 100%)" offset="0.125"/><stop stop-opacity="1" stop-color="rgb(96.031189%, 97.561646%, 100%)" offset="0.128906"/><stop stop-opacity="1" stop-color="rgb(95.623779%, 97.311401%, 100%)" offset="0.132812"/><stop stop-opacity="1" stop-color="rgb(95.21637%, 97.061157%, 100%)" offset="0.136719"/><stop stop-opacity="1" stop-color="rgb(94.80896%, 96.810913%, 100%)" offset="0.140625"/><stop stop-opacity="1" stop-color="rgb(94.40155%, 96.559143%, 100%)" offset="0.144531"/><stop stop-opacity="1" stop-color="rgb(93.994141%, 96.308899%, 100%)" offset="0.148437"/><stop stop-opacity="1" stop-color="rgb(93.586731%, 96.058655%, 100%)" offset="0.152344"/><stop stop-opacity="1" stop-color="rgb(93.179321%, 95.808411%, 100%)" offset="0.15625"/><stop stop-opacity="1" stop-color="rgb(92.771912%, 95.558167%, 100%)" offset="0.160156"/><stop stop-opacity="1" stop-color="rgb(92.364502%, 95.307922%, 100%)" offset="0.164062"/><stop stop-opacity="1" stop-color="rgb(91.957092%, 95.057678%, 100%)" offset="0.167969"/><stop stop-opacity="1" stop-color="rgb(91.551208%, 94.807434%, 100%)" offset="0.171875"/><stop stop-opacity="1" stop-color="rgb(91.143799%, 94.55719%, 100%)" offset="0.175781"/><stop stop-opacity="1" stop-color="rgb(90.736389%, 94.306946%, 100%)" offset="0.179687"/><stop stop-opacity="1" stop-color="rgb(90.328979%, 94.056702%, 100%)" offset="0.183594"/><stop stop-opacity="1" stop-color="rgb(89.92157%, 93.806458%, 100%)" offset="0.1875"/><stop stop-opacity="1" stop-color="rgb(89.51416%, 93.556213%, 100%)" offset="0.191406"/><stop stop-opacity="1" stop-color="rgb(89.10675%, 93.305969%, 100%)" offset="0.195312"/><stop stop-opacity="1" stop-color="rgb(88.699341%, 93.055725%, 100%)" offset="0.199219"/><stop stop-opacity="1" stop-color="rgb(88.291931%, 92.805481%, 100%)" offset="0.203125"/><stop stop-opacity="1" stop-color="rgb(87.884521%, 92.555237%, 100%)" offset="0.207031"/><stop stop-opacity="1" stop-color="rgb(87.477112%, 92.304993%, 100%)" offset="0.210938"/><stop stop-opacity="1" stop-color="rgb(87.069702%, 92.053223%, 100%)" offset="0.214844"/><stop stop-opacity="1" stop-color="rgb(86.662292%, 91.802979%, 100%)" offset="0.21875"/><stop stop-opacity="1" stop-color="rgb(86.254883%, 91.552734%, 100%)" offset="0.222656"/><stop stop-opacity="1" stop-color="rgb(85.847473%, 91.30249%, 100%)" offset="0.226562"/><stop stop-opacity="1" stop-color="rgb(85.440063%, 91.052246%, 100%)" offset="0.230469"/><stop stop-opacity="1" stop-color="rgb(85.032654%, 90.802002%, 100%)" offset="0.234375"/><stop stop-opacity="1" stop-color="rgb(84.625244%, 90.551758%, 100%)" offset="0.238281"/><stop stop-opacity="1" stop-color="rgb(84.217834%, 90.301514%, 100%)" offset="0.242187"/><stop stop-opacity="1" stop-color="rgb(83.810425%, 90.05127%, 100%)" offset="0.246094"/><stop stop-opacity="1" stop-color="rgb(83.403015%, 89.801025%, 100%)" offset="0.25"/><stop stop-opacity="1" stop-color="rgb(82.995605%, 89.550781%, 100%)" offset="0.253906"/><stop stop-opacity="1" stop-color="rgb(82.588196%, 89.300537%, 100%)" offset="0.257812"/><stop stop-opacity="1" stop-color="rgb(82.180786%, 89.050293%, 100%)" offset="0.261719"/><stop stop-opacity="1" stop-color="rgb(81.773376%, 88.800049%, 100%)" offset="0.265625"/><stop stop-opacity="1" stop-color="rgb(81.365967%, 88.549805%, 100%)" offset="0.269531"/><stop stop-opacity="1" stop-color="rgb(80.958557%, 88.299561%, 100%)" offset="0.273437"/><stop stop-opacity="1" stop-color="rgb(80.551147%, 88.049316%, 100%)" offset="0.277344"/><stop stop-opacity="1" stop-color="rgb(80.143738%, 87.799072%, 100%)" offset="0.28125"/><stop stop-opacity="1" stop-color="rgb(79.736328%, 87.548828%, 100%)" offset="0.285156"/><stop stop-opacity="1" stop-color="rgb(79.328918%, 87.298584%, 100%)" offset="0.289062"/><stop stop-opacity="1" stop-color="rgb(78.921509%, 87.046814%, 100%)" offset="0.292969"/><stop stop-opacity="1" stop-color="rgb(78.514099%, 86.79657%, 100%)" offset="0.296875"/><stop stop-opacity="1" stop-color="rgb(78.106689%, 86.546326%, 100%)" offset="0.300781"/><stop stop-opacity="1" stop-color="rgb(77.69928%, 86.296082%, 100%)" offset="0.304687"/><stop stop-opacity="1" stop-color="rgb(77.29187%, 86.045837%, 100%)" offset="0.308594"/><stop stop-opacity="1" stop-color="rgb(76.88446%, 85.795593%, 100%)" offset="0.3125"/><stop stop-opacity="1" stop-color="rgb(76.477051%, 85.545349%, 100%)" offset="0.316406"/><stop stop-opacity="1" stop-color="rgb(76.071167%, 85.295105%, 100%)" offset="0.320312"/><stop stop-opacity="1" stop-color="rgb(75.663757%, 85.044861%, 100%)" offset="0.324219"/><stop stop-opacity="1" stop-color="rgb(75.256348%, 84.794617%, 100%)" offset="0.328125"/><stop stop-opacity="1" stop-color="rgb(74.848938%, 84.544373%, 100%)" offset="0.332031"/><stop stop-opacity="1" stop-color="rgb(74.441528%, 84.294128%, 100%)" offset="0.335937"/><stop stop-opacity="1" stop-color="rgb(74.034119%, 84.043884%, 100%)" offset="0.339844"/><stop stop-opacity="1" stop-color="rgb(73.626709%, 83.79364%, 100%)" offset="0.34375"/><stop stop-opacity="1" stop-color="rgb(73.219299%, 83.543396%, 100%)" offset="0.347656"/><stop stop-opacity="1" stop-color="rgb(72.81189%, 83.293152%, 100%)" offset="0.351562"/><stop stop-opacity="1" stop-color="rgb(72.40448%, 83.042908%, 100%)" offset="0.355469"/><stop stop-opacity="1" stop-color="rgb(71.99707%, 82.792664%, 100%)" offset="0.359375"/><stop stop-opacity="1" stop-color="rgb(71.589661%, 82.540894%, 100%)" offset="0.363281"/><stop stop-opacity="1" stop-color="rgb(71.182251%, 82.290649%, 100%)" offset="0.367187"/><stop stop-opacity="1" stop-color="rgb(70.774841%, 82.040405%, 100%)" offset="0.371094"/><stop stop-opacity="1" stop-color="rgb(70.367432%, 81.790161%, 100%)" offset="0.375"/><stop stop-opacity="1" stop-color="rgb(69.960022%, 81.539917%, 100%)" offset="0.378906"/><stop stop-opacity="1" stop-color="rgb(69.552612%, 81.289673%, 100%)" offset="0.382812"/><stop stop-opacity="1" stop-color="rgb(69.145203%, 81.039429%, 100%)" offset="0.386719"/><stop stop-opacity="1" stop-color="rgb(68.737793%, 80.789185%, 100%)" offset="0.390625"/><stop stop-opacity="1" stop-color="rgb(68.330383%, 80.53894%, 100%)" offset="0.394531"/><stop stop-opacity="1" stop-color="rgb(67.922974%, 80.288696%, 100%)" offset="0.398437"/><stop stop-opacity="1" stop-color="rgb(67.515564%, 80.038452%, 100%)" offset="0.402344"/><stop stop-opacity="1" stop-color="rgb(67.108154%, 79.788208%, 100%)" offset="0.40625"/><stop stop-opacity="1" stop-color="rgb(66.700745%, 79.537964%, 100%)" offset="0.410156"/><stop stop-opacity="1" stop-color="rgb(66.293335%, 79.28772%, 100%)" offset="0.414062"/><stop stop-opacity="1" stop-color="rgb(65.885925%, 79.037476%, 100%)" offset="0.417969"/><stop stop-opacity="1" stop-color="rgb(65.478516%, 78.787231%, 100%)" offset="0.421875"/><stop stop-opacity="1" stop-color="rgb(65.071106%, 78.536987%, 100%)" offset="0.425781"/><stop stop-opacity="1" stop-color="rgb(64.663696%, 78.286743%, 100%)" offset="0.429687"/><stop stop-opacity="1" stop-color="rgb(64.256287%, 78.036499%, 100%)" offset="0.433594"/><stop stop-opacity="1" stop-color="rgb(63.848877%, 77.786255%, 100%)" offset="0.4375"/><stop stop-opacity="1" stop-color="rgb(63.441467%, 77.534485%, 100%)" offset="0.441406"/><stop stop-opacity="1" stop-color="rgb(63.034058%, 77.284241%, 100%)" offset="0.445312"/><stop stop-opacity="1" stop-color="rgb(62.626648%, 77.033997%, 100%)" offset="0.449219"/><stop stop-opacity="1" stop-color="rgb(62.219238%, 76.783752%, 100%)" offset="0.453125"/><stop stop-opacity="1" stop-color="rgb(61.811829%, 76.533508%, 100%)" offset="0.457031"/><stop stop-opacity="1" stop-color="rgb(61.404419%, 76.283264%, 100%)" offset="0.460937"/><stop stop-opacity="1" stop-color="rgb(60.997009%, 76.03302%, 100%)" offset="0.464844"/><stop stop-opacity="1" stop-color="rgb(60.591125%, 75.782776%, 100%)" offset="0.46875"/><stop stop-opacity="1" stop-color="rgb(60.183716%, 75.532532%, 100%)" offset="0.472656"/><stop stop-opacity="1" stop-color="rgb(59.776306%, 75.282288%, 100%)" offset="0.476562"/><stop stop-opacity="1" stop-color="rgb(59.368896%, 75.032043%, 100%)" offset="0.480469"/><stop stop-opacity="1" stop-color="rgb(58.961487%, 74.781799%, 100%)" offset="0.484375"/><stop stop-opacity="1" stop-color="rgb(58.554077%, 74.531555%, 100%)" offset="0.488281"/><stop stop-opacity="1" stop-color="rgb(58.146667%, 74.281311%, 100%)" offset="0.492187"/><stop stop-opacity="1" stop-color="rgb(57.739258%, 74.031067%, 100%)" offset="0.496094"/><stop stop-opacity="1" stop-color="rgb(57.331848%, 73.780823%, 100%)" offset="0.5"/><stop stop-opacity="1" stop-color="rgb(56.924438%, 73.530579%, 100%)" offset="0.503906"/><stop stop-opacity="1" stop-color="rgb(56.517029%, 73.280334%, 100%)" offset="0.507812"/><stop stop-opacity="1" stop-color="rgb(56.109619%, 73.028564%, 100%)" offset="0.511719"/><stop stop-opacity="1" stop-color="rgb(55.702209%, 72.77832%, 100%)" offset="0.515625"/><stop stop-opacity="1" stop-color="rgb(55.2948%, 72.528076%, 100%)" offset="0.519531"/><stop stop-opacity="1" stop-color="rgb(54.88739%, 72.277832%, 100%)" offset="0.523437"/><stop stop-opacity="1" stop-color="rgb(54.47998%, 72.027588%, 100%)" offset="0.527344"/><stop stop-opacity="1" stop-color="rgb(54.072571%, 71.777344%, 100%)" offset="0.53125"/><stop stop-opacity="1" stop-color="rgb(53.665161%, 71.5271%, 100%)" offset="0.535156"/><stop stop-opacity="1" stop-color="rgb(53.257751%, 71.276855%, 100%)" offset="0.539062"/><stop stop-opacity="1" stop-color="rgb(52.850342%, 71.026611%, 100%)" offset="0.542969"/><stop stop-opacity="1" stop-color="rgb(52.442932%, 70.776367%, 100%)" offset="0.546875"/><stop stop-opacity="1" stop-color="rgb(52.035522%, 70.526123%, 100%)" offset="0.550781"/><stop stop-opacity="1" stop-color="rgb(51.628113%, 70.275879%, 100%)" offset="0.554687"/><stop stop-opacity="1" stop-color="rgb(51.220703%, 70.025635%, 100%)" offset="0.558594"/><stop stop-opacity="1" stop-color="rgb(50.813293%, 69.775391%, 100%)" offset="0.5625"/><stop stop-opacity="1" stop-color="rgb(50.405884%, 69.525146%, 100%)" offset="0.566406"/><stop stop-opacity="1" stop-color="rgb(49.998474%, 69.274902%, 100%)" offset="0.570312"/><stop stop-opacity="1" stop-color="rgb(49.591064%, 69.024658%, 100%)" offset="0.574219"/><stop stop-opacity="1" stop-color="rgb(49.183655%, 68.774414%, 100%)" offset="0.578125"/><stop stop-opacity="1" stop-color="rgb(48.776245%, 68.52417%, 100%)" offset="0.582031"/><stop stop-opacity="1" stop-color="rgb(48.368835%, 68.273926%, 100%)" offset="0.585937"/><stop stop-opacity="1" stop-color="rgb(47.961426%, 68.022156%, 100%)" offset="0.589844"/><stop stop-opacity="1" stop-color="rgb(47.554016%, 67.771912%, 100%)" offset="0.59375"/><stop stop-opacity="1" stop-color="rgb(47.146606%, 67.521667%, 100%)" offset="0.597656"/><stop stop-opacity="1" stop-color="rgb(46.739197%, 67.271423%, 100%)" offset="0.601562"/><stop stop-opacity="1" stop-color="rgb(46.331787%, 67.021179%, 100%)" offset="0.605469"/><stop stop-opacity="1" stop-color="rgb(45.924377%, 66.770935%, 100%)" offset="0.609375"/><stop stop-opacity="1" stop-color="rgb(45.516968%, 66.520691%, 100%)" offset="0.613281"/><stop stop-opacity="1" stop-color="rgb(45.111084%, 66.270447%, 100%)" offset="0.617188"/><stop stop-opacity="1" stop-color="rgb(44.703674%, 66.020203%, 100%)" offset="0.621094"/><stop stop-opacity="1" stop-color="rgb(44.296265%, 65.769958%, 100%)" offset="0.625"/><stop stop-opacity="1" stop-color="rgb(43.888855%, 65.519714%, 100%)" offset="0.628906"/><stop stop-opacity="1" stop-color="rgb(43.481445%, 65.26947%, 100%)" offset="0.632812"/><stop stop-opacity="1" stop-color="rgb(43.074036%, 65.019226%, 100%)" offset="0.636719"/><stop stop-opacity="1" stop-color="rgb(42.666626%, 64.768982%, 100%)" offset="0.640625"/><stop stop-opacity="1" stop-color="rgb(42.259216%, 64.518738%, 100%)" offset="0.644531"/><stop stop-opacity="1" stop-color="rgb(41.851807%, 64.268494%, 100%)" offset="0.648437"/><stop stop-opacity="1" stop-color="rgb(41.444397%, 64.01825%, 100%)" offset="0.652344"/><stop stop-opacity="1" stop-color="rgb(41.036987%, 63.768005%, 100%)" offset="0.65625"/><stop stop-opacity="1" stop-color="rgb(40.629578%, 63.516235%, 100%)" offset="0.660156"/><stop stop-opacity="1" stop-color="rgb(40.222168%, 63.265991%, 100%)" offset="0.664062"/><stop stop-opacity="1" stop-color="rgb(39.814758%, 63.015747%, 100%)" offset="0.667969"/><stop stop-opacity="1" stop-color="rgb(39.407349%, 62.765503%, 100%)" offset="0.671875"/><stop stop-opacity="1" stop-color="rgb(38.999939%, 62.515259%, 100%)" offset="0.675781"/><stop stop-opacity="1" stop-color="rgb(38.592529%, 62.265015%, 100%)" offset="0.679687"/><stop stop-opacity="1" stop-color="rgb(38.18512%, 62.014771%, 100%)" offset="0.683594"/><stop stop-opacity="1" stop-color="rgb(37.77771%, 61.764526%, 100%)" offset="0.6875"/><stop stop-opacity="1" stop-color="rgb(37.3703%, 61.514282%, 100%)" offset="0.691406"/><stop stop-opacity="1" stop-color="rgb(36.962891%, 61.264038%, 100%)" offset="0.695312"/><stop stop-opacity="1" stop-color="rgb(36.555481%, 61.013794%, 100%)" offset="0.699219"/><stop stop-opacity="1" stop-color="rgb(36.148071%, 60.76355%, 100%)" offset="0.703125"/><stop stop-opacity="1" stop-color="rgb(35.740662%, 60.513306%, 100%)" offset="0.707031"/><stop stop-opacity="1" stop-color="rgb(35.333252%, 60.263062%, 100%)" offset="0.710937"/><stop stop-opacity="1" stop-color="rgb(34.925842%, 60.012817%, 100%)" offset="0.714844"/><stop stop-opacity="1" stop-color="rgb(34.518433%, 59.762573%, 100%)" offset="0.71875"/><stop stop-opacity="1" stop-color="rgb(34.111023%, 59.512329%, 100%)" offset="0.722656"/><stop stop-opacity="1" stop-color="rgb(33.703613%, 59.262085%, 100%)" offset="0.726562"/><stop stop-opacity="1" stop-color="rgb(33.296204%, 59.011841%, 100%)" offset="0.730469"/><stop stop-opacity="1" stop-color="rgb(32.888794%, 58.761597%, 100%)" offset="0.734375"/><stop stop-opacity="1" stop-color="rgb(32.481384%, 58.509827%, 100%)" offset="0.738281"/><stop stop-opacity="1" stop-color="rgb(32.073975%, 58.259583%, 100%)" offset="0.742188"/><stop stop-opacity="1" stop-color="rgb(31.666565%, 58.009338%, 100%)" offset="0.746094"/><stop stop-opacity="1" stop-color="rgb(31.259155%, 57.759094%, 100%)" offset="0.75"/><stop stop-opacity="1" stop-color="rgb(30.851746%, 57.50885%, 100%)" offset="0.753906"/><stop stop-opacity="1" stop-color="rgb(30.444336%, 57.258606%, 100%)" offset="0.757812"/><stop stop-opacity="1" stop-color="rgb(30.036926%, 57.008362%, 100%)" offset="0.761719"/><stop stop-opacity="1" stop-color="rgb(29.631042%, 56.758118%, 100%)" offset="0.765625"/><stop stop-opacity="1" stop-color="rgb(29.223633%, 56.507874%, 100%)" offset="0.769531"/><stop stop-opacity="1" stop-color="rgb(28.816223%, 56.257629%, 100%)" offset="0.773438"/><stop stop-opacity="1" stop-color="rgb(28.408813%, 56.007385%, 100%)" offset="0.777344"/><stop stop-opacity="1" stop-color="rgb(28.001404%, 55.757141%, 100%)" offset="0.78125"/><stop stop-opacity="1" stop-color="rgb(27.593994%, 55.506897%, 100%)" offset="0.785156"/><stop stop-opacity="1" stop-color="rgb(27.186584%, 55.256653%, 100%)" offset="0.789062"/><stop stop-opacity="1" stop-color="rgb(26.779175%, 55.006409%, 100%)" offset="0.792969"/><stop stop-opacity="1" stop-color="rgb(26.371765%, 54.756165%, 100%)" offset="0.796875"/><stop stop-opacity="1" stop-color="rgb(25.964355%, 54.50592%, 100%)" offset="0.800781"/><stop stop-opacity="1" stop-color="rgb(25.556946%, 54.255676%, 100%)" offset="0.804688"/><stop stop-opacity="1" stop-color="rgb(25.149536%, 54.003906%, 100%)" offset="0.808594"/><stop stop-opacity="1" stop-color="rgb(24.742126%, 53.753662%, 100%)" offset="0.8125"/><stop stop-opacity="1" stop-color="rgb(24.334717%, 53.503418%, 100%)" offset="0.816406"/><stop stop-opacity="1" stop-color="rgb(23.927307%, 53.253174%, 100%)" offset="0.820312"/><stop stop-opacity="1" stop-color="rgb(23.519897%, 53.00293%, 100%)" offset="0.824219"/><stop stop-opacity="1" stop-color="rgb(23.112488%, 52.752686%, 100%)" offset="0.828125"/><stop stop-opacity="1" stop-color="rgb(22.904968%, 52.626038%, 100%)" offset="0.832031"/><stop stop-opacity="1" stop-color="rgb(22.698975%, 52.49939%, 100%)" offset="0.835937"/><stop stop-opacity="1" stop-color="rgb(22.698975%, 52.49939%, 100%)" offset="0.84375"/><stop stop-opacity="1" stop-color="rgb(22.698975%, 52.49939%, 100%)" offset="0.875"/><stop stop-opacity="1" stop-color="rgb(22.698975%, 52.49939%, 100%)" offset="1"/></linearGradient></defs><g clip-path="url(#id4)"><g clip-path="url(#id5)"><path fill="url(#id6)" d="M 47.179688 4.019531 L 47.179688 50.511719 L 91.425781 50.511719 L 91.425781 4.019531 Z M 47.179688 4.019531 " fill-rule="nonzero"/></g></g><g fill="rgb(32.939148%, 32.939148%, 32.939148%)" fill-opacity="1"><g transform="translate(24.562085, 30.250302)"><g><path d="M 4.921875 0.21875 C 3.921875 0.21875 2.960938 0.0859375 2.046875 -0.171875 C 1.140625 -0.441406 0.410156 -0.78125 -0.140625 -1.1875 L 1.046875 -3.4375 C 1.617188 -3.019531 2.265625 -2.695312 2.984375 -2.46875 C 3.710938 -2.238281 4.453125 -2.125 5.203125 -2.125 C 6.003906 -2.125 6.640625 -2.253906 7.109375 -2.515625 C 7.578125 -2.785156 7.8125 -3.148438 7.8125 -3.609375 C 7.8125 -3.972656 7.625 -4.253906 7.25 -4.453125 C 6.882812 -4.648438 6.296875 -4.863281 5.484375 -5.09375 C 4.660156 -5.332031 3.988281 -5.5625 3.46875 -5.78125 C 2.957031 -6.007812 2.507812 -6.34375 2.125 -6.78125 C 1.75 -7.226562 1.5625 -7.820312 1.5625 -8.5625 C 1.5625 -9.414062 1.796875 -10.164062 2.265625 -10.8125 C 2.742188 -11.457031 3.421875 -11.953125 4.296875 -12.296875 C 5.171875 -12.648438 6.179688 -12.828125 7.328125 -12.828125 C 8.179688 -12.828125 8.984375 -12.734375 9.734375 -12.546875 C 10.492188 -12.359375 11.144531 -12.09375 11.6875 -11.75 L 10.59375 -9.515625 C 10.125 -9.835938 9.59375 -10.078125 9 -10.234375 C 8.414062 -10.398438 7.804688 -10.484375 7.171875 -10.484375 C 6.335938 -10.484375 5.679688 -10.335938 5.203125 -10.046875 C 4.722656 -9.765625 4.484375 -9.394531 4.484375 -8.9375 C 4.484375 -8.65625 4.582031 -8.421875 4.78125 -8.234375 C 4.988281 -8.054688 5.25 -7.910156 5.5625 -7.796875 C 5.875 -7.679688 6.3125 -7.546875 6.875 -7.390625 C 7.6875 -7.171875 8.347656 -6.945312 8.859375 -6.71875 C 9.378906 -6.5 9.820312 -6.175781 10.1875 -5.75 C 10.550781 -5.320312 10.734375 -4.765625 10.734375 -4.078125 C 10.734375 -3.210938 10.492188 -2.457031 10.015625 -1.8125 C 9.535156 -1.164062 8.859375 -0.664062 7.984375 -0.3125 C 7.109375 0.0390625 6.085938 0.21875 4.921875 0.21875 Z M 4.921875 0.21875 "/></g></g></g><g fill="rgb(32.939148%, 32.939148%, 32.939148%)" fill-opacity="1"><g transform="translate(36.053578, 30.250302)"><g><path d="M 8.234375 -6.78125 L 12.609375 0 L 9.328125 0 L 6.09375 -4.9375 L 4.046875 -3.140625 L 3.421875 0 L 0.515625 0 L 3.046875 -12.609375 L 5.9375 -12.609375 L 4.796875 -6.828125 L 11.328125 -12.609375 L 14.859375 -12.609375 Z M 8.234375 -6.78125 "/></g></g></g><g fill="rgb(32.939148%, 32.939148%, 32.939148%)" fill-opacity="1"><g transform="translate(49.38227, 30.250302)"><g><path d="M 5.484375 -10.265625 L 4.9375 -7.53125 L 10.796875 -7.53125 L 10.34375 -5.265625 L 4.46875 -5.265625 L 3.890625 -2.34375 L 10.765625 -2.34375 L 10.28125 0 L 0.515625 0 L 3.046875 -12.609375 L 12.578125 -12.609375 L 12.09375 -10.265625 Z M 5.484375 -10.265625 "/></g></g></g><g fill="rgb(32.939148%, 32.939148%, 32.939148%)" fill-opacity="1"><g transform="translate(61.468158, 30.250302)"><g><path d="M 5.171875 -10.234375 L 1.140625 -10.234375 L 1.625 -12.609375 L 12.609375 -12.609375 L 12.125 -10.234375 L 8.109375 -10.234375 L 6.046875 0 L 3.140625 0 Z M 5.171875 -10.234375 "/></g></g></g><g fill="rgb(32.939148%, 32.939148%, 32.939148%)" fill-opacity="1"><g transform="translate(72.599413, 30.250302)"><g><path d="M 7.15625 0.21875 C 5.894531 0.21875 4.789062 -0.0078125 3.84375 -0.46875 C 2.90625 -0.925781 2.179688 -1.566406 1.671875 -2.390625 C 1.171875 -3.222656 0.921875 -4.179688 0.921875 -5.265625 C 0.921875 -6.691406 1.242188 -7.976562 1.890625 -9.125 C 2.546875 -10.269531 3.46875 -11.171875 4.65625 -11.828125 C 5.851562 -12.492188 7.21875 -12.828125 8.75 -12.828125 C 9.882812 -12.828125 10.882812 -12.632812 11.75 -12.25 C 12.613281 -11.863281 13.265625 -11.3125 13.703125 -10.59375 L 11.609375 -8.859375 C 10.929688 -9.847656 9.914062 -10.34375 8.5625 -10.34375 C 7.632812 -10.34375 6.816406 -10.125 6.109375 -9.6875 C 5.398438 -9.257812 4.847656 -8.671875 4.453125 -7.921875 C 4.066406 -7.179688 3.875 -6.351562 3.875 -5.4375 C 3.875 -4.46875 4.179688 -3.695312 4.796875 -3.125 C 5.421875 -2.550781 6.289062 -2.265625 7.40625 -2.265625 C 8.738281 -2.265625 9.851562 -2.753906 10.75 -3.734375 L 12.484375 -1.96875 C 11.234375 -0.507812 9.457031 0.21875 7.15625 0.21875 Z M 7.15625 0.21875 "/></g></g></g><g fill="rgb(32.939148%, 32.939148%, 32.939148%)" fill-opacity="1"><g transform="translate(85.802026, 30.250302)"><g><path d="M 14.609375 -12.609375 L 12.09375 0 L 9.171875 0 L 10.203125 -5.140625 L 4.484375 -5.140625 L 3.453125 0 L 0.515625 0 L 3.046875 -12.609375 L 5.984375 -12.609375 L 4.984375 -7.65625 L 10.703125 -7.65625 L 11.6875 -12.609375 Z M 14.609375 -12.609375 "/></g></g></g><g fill="rgb(32.939148%, 32.939148%, 32.939148%)" fill-opacity="1"><g transform="translate(78.443183, 51.685208)"><g><path d="M 7.140625 0.1875 C 5.878906 0.1875 4.785156 -0.0351562 3.859375 -0.484375 C 2.941406 -0.941406 2.238281 -1.578125 1.75 -2.390625 C 1.257812 -3.210938 1.015625 -4.148438 1.015625 -5.203125 C 1.015625 -6.617188 1.335938 -7.90625 1.984375 -9.0625 C 2.628906 -10.21875 3.539062 -11.128906 4.71875 -11.796875 C 5.894531 -12.460938 7.25 -12.796875 8.78125 -12.796875 C 9.863281 -12.796875 10.820312 -12.613281 11.65625 -12.25 C 12.5 -11.882812 13.132812 -11.363281 13.5625 -10.6875 L 11.875 -9.265625 C 11.164062 -10.242188 10.078125 -10.734375 8.609375 -10.734375 C 7.566406 -10.734375 6.648438 -10.492188 5.859375 -10.015625 C 5.066406 -9.535156 4.453125 -8.882812 4.015625 -8.0625 C 3.585938 -7.238281 3.375 -6.332031 3.375 -5.34375 C 3.375 -4.28125 3.710938 -3.4375 4.390625 -2.8125 C 5.078125 -2.1875 6.050781 -1.875 7.3125 -1.875 C 8.769531 -1.875 9.96875 -2.359375 10.90625 -3.328125 L 12.265625 -1.859375 C 11.671875 -1.171875 10.929688 -0.65625 10.046875 -0.3125 C 9.171875 0.0195312 8.203125 0.1875 7.140625 0.1875 Z M 7.140625 0.1875 "/></g></g></g><g fill="rgb(32.939148%, 32.939148%, 32.939148%)" fill-opacity="1"><g transform="translate(91.537718, 51.685208)"><g><path d="M 7.046875 0.1875 C 5.796875 0.1875 4.71875 -0.0351562 3.8125 -0.484375 C 2.90625 -0.941406 2.210938 -1.578125 1.734375 -2.390625 C 1.253906 -3.203125 1.015625 -4.140625 1.015625 -5.203125 C 1.015625 -6.617188 1.332031 -7.90625 1.96875 -9.0625 C 2.613281 -10.21875 3.523438 -11.128906 4.703125 -11.796875 C 5.878906 -12.460938 7.222656 -12.796875 8.734375 -12.796875 C 9.984375 -12.796875 11.0625 -12.566406 11.96875 -12.109375 C 12.875 -11.660156 13.566406 -11.03125 14.046875 -10.21875 C 14.523438 -9.40625 14.765625 -8.46875 14.765625 -7.40625 C 14.765625 -5.988281 14.441406 -4.703125 13.796875 -3.546875 C 13.160156 -2.390625 12.253906 -1.476562 11.078125 -0.8125 C 9.898438 -0.144531 8.554688 0.1875 7.046875 0.1875 Z M 7.25 -1.875 C 8.269531 -1.875 9.171875 -2.113281 9.953125 -2.59375 C 10.742188 -3.082031 11.347656 -3.738281 11.765625 -4.5625 C 12.191406 -5.382812 12.40625 -6.285156 12.40625 -7.265625 C 12.40625 -8.316406 12.066406 -9.15625 11.390625 -9.78125 C 10.710938 -10.414062 9.753906 -10.734375 8.515625 -10.734375 C 7.492188 -10.734375 6.585938 -10.488281 5.796875 -10 C 5.015625 -9.519531 4.414062 -8.867188 4 -8.046875 C 3.582031 -7.222656 3.375 -6.320312 3.375 -5.34375 C 3.375 -4.289062 3.707031 -3.445312 4.375 -2.8125 C 5.050781 -2.1875 6.007812 -1.875 7.25 -1.875 Z M 7.25 -1.875 "/></g></g></g><g fill="rgb(32.939148%, 32.939148%, 32.939148%)" fill-opacity="1"><g transform="translate(106.70361, 51.685208)"><g><path d="M 3.265625 -12.609375 L 8.359375 -12.609375 C 9.617188 -12.609375 10.710938 -12.394531 11.640625 -11.96875 C 12.566406 -11.539062 13.269531 -10.9375 13.75 -10.15625 C 14.238281 -9.375 14.484375 -8.457031 14.484375 -7.40625 C 14.484375 -5.925781 14.15625 -4.628906 13.5 -3.515625 C 12.84375 -2.398438 11.921875 -1.535156 10.734375 -0.921875 C 9.546875 -0.304688 8.175781 0 6.625 0 L 0.734375 0 Z M 6.703125 -1.984375 C 7.804688 -1.984375 8.765625 -2.207031 9.578125 -2.65625 C 10.398438 -3.113281 11.03125 -3.742188 11.46875 -4.546875 C 11.90625 -5.347656 12.125 -6.253906 12.125 -7.265625 C 12.125 -8.316406 11.78125 -9.140625 11.09375 -9.734375 C 10.414062 -10.328125 9.421875 -10.625 8.109375 -10.625 L 5.203125 -10.625 L 3.484375 -1.984375 Z M 6.703125 -1.984375 "/></g></g></g><g fill="rgb(32.939148%, 32.939148%, 32.939148%)" fill-opacity="1"><g transform="translate(121.581318, 51.685208)"><g><path d="M 5.1875 -10.640625 L 4.546875 -7.375 L 10.640625 -7.375 L 10.265625 -5.4375 L 4.140625 -5.4375 L 3.453125 -1.96875 L 10.59375 -1.96875 L 10.203125 0 L 0.734375 0 L 3.265625 -12.609375 L 12.46875 -12.609375 L 12.078125 -10.640625 Z M 5.1875 -10.640625 "/></g></g></g><g fill="rgb(98.429871%, 33.729553%, 2.749634%)" fill-opacity="1"><g transform="translate(106.050746, 31.666788)"><g><path d="M 4.65625 -2.578125 L 12.21875 -2.578125 L 11.671875 0 L -0.421875 0 L -0.03125 -2.046875 L 7.71875 -8.171875 C 8.726562 -8.972656 9.421875 -9.65625 9.796875 -10.21875 C 10.179688 -10.78125 10.375 -11.367188 10.375 -11.984375 C 10.375 -12.640625 10.132812 -13.148438 9.65625 -13.515625 C 9.1875 -13.878906 8.488281 -14.0625 7.5625 -14.0625 C 6.820312 -14.0625 6.113281 -13.910156 5.4375 -13.609375 C 4.769531 -13.304688 4.175781 -12.875 3.65625 -12.3125 L 1.59375 -13.953125 C 2.28125 -14.773438 3.1875 -15.429688 4.3125 -15.921875 C 5.445312 -16.421875 6.671875 -16.671875 7.984375 -16.671875 C 9.109375 -16.671875 10.085938 -16.488281 10.921875 -16.125 C 11.753906 -15.769531 12.390625 -15.265625 12.828125 -14.609375 C 13.265625 -13.960938 13.484375 -13.226562 13.484375 -12.40625 C 13.484375 -11.394531 13.207031 -10.441406 12.65625 -9.546875 C 12.113281 -8.660156 11.148438 -7.675781 9.765625 -6.59375 Z M 4.65625 -2.578125 "/></g></g></g></svg>